<svg xmlns="http://www.w3.org/2000/svg" width="1140" height="650" viewBox="0 0 1140 650">
<defs><marker id="arrow" markerWidth="8" markerHeight="8" refX="4" refY="4" orient="auto-start-reverse"><path d="M0 0 L8 4 L0 8" fill="#50665f"/></marker></defs>
<style>text{font-family:Arial,sans-serif;fill:#243d34}.title{font-size:25px;font-weight:600}.label{font-size:16px}.small{font-size:13px}.part{fill:#e0eee8;stroke:#285d49;stroke-width:2}.hole{fill:white;stroke:#285d49;stroke-width:1.5}.dim{stroke:#50665f;stroke-width:1;fill:none;marker-start:url(#arrow);marker-end:url(#arrow)}.ext{stroke:#8ea49b;stroke-width:1}.hidden{stroke:#8ea49b;stroke-width:1;stroke-dasharray:4 4;fill:none}</style>
<rect width="1140" height="650" fill="#fff"/>
<text x="50" y="52" class="title">SCRAP · SIMPLE C920s WALL MOUNT</text>
<text x="50" y="82" class="label">One-piece fixed bracket · All dimensions in mm · Concept, physical fit unverified</text>
<text x="90" y="150" class="label">SIDE</text>
<polygon points="90,450 106,450 106,438 478,290 490,290 490,394 506,394 506,274 106,274 106,210 90,210" class="part"/>
<path d="M490 347.2H506 M490 360.8H506" class="hidden"/>
<line x1="106" y1="187" x2="506" y2="187" class="dim"/><path d="M106 203V176 M506 266V176" class="ext"/>
<text x="264" y="177" class="label">200 arm</text>
<line x1="55" y1="210" x2="55" y2="450" class="dim"/><path d="M82 210H43 M82 450H43" class="ext"/>
<text x="30" y="348" class="label" transform="rotate(-90 30 348)">120</text>
<line x1="90" y1="485" x2="506" y2="485" class="dim"/><path d="M90 458V496 M506 402V496" class="ext"/>
<text x="256" y="510" class="label">208 overall</text>
<path d="M250 385L311 329" class="ext"/><text x="152" y="410" class="small">12-wide triangular brace</text>
<text x="90" y="549" class="small">Wall plate, arm and end tab: 8 thick</text>
<text x="650" y="150" class="label">WALL PLATE</text>
<rect x="650" y="210" width="180" height="240" rx="8" class="part"/>
<g class="hole"><circle cx="680" cy="420" r="5.5"/><circle cx="680" cy="240" r="5.5"/><circle cx="800" cy="420" r="5.5"/><circle cx="800" cy="240" r="5.5"/></g>
<rect x="700" y="274" width="80" height="16" class="hidden"/>
<path d="M728 290V438 M752 290V438" class="hidden"/>
<line x1="650" y1="187" x2="830" y2="187" class="dim"/><path d="M650 203V176 M830 203V176" class="ext"/>
<text x="730" y="177" class="label">90</text>
<line x1="680" y1="485" x2="800" y2="485" class="dim"/><path d="M680 426V496 M800 426V496" class="ext"/>
<text x="705" y="510" class="label">60 centres</text>
<line x1="855" y1="240" x2="855" y2="420" class="dim"/><path d="M805 240H866 M805 420H866" class="ext"/>
<text x="877" y="374" class="label" transform="rotate(-90 877 374)">90 centres</text>
<text x="650" y="549" class="small">4 × Ø5.5 through · washer-head screws</text>
<text x="948" y="150" class="label">CAMERA END</text>
<rect x="950" y="270" width="80" height="120" rx="4" class="part"/>
<circle cx="990" cy="350" r="6.8" class="hole"/>
<line x1="950" y1="247" x2="1030" y2="247" class="dim"/><path d="M950 263V236 M1030 263V236" class="ext"/>
<text x="980" y="237" class="label">40</text>
<line x1="1055" y1="270" x2="1055" y2="390" class="dim"/><path d="M1037 270H1067 M1037 390H1067" class="ext"/>
<text x="1080" y="340" class="label">60</text>
<path d="M990 350L970 430" class="ext"/><text x="948" y="458" class="small">Ø6.8 through</text>
<text x="948" y="482" class="small">1/4-20 camera screw</text>
<text x="948" y="507" class="small">Hole 20 above bottom</text>
<text x="50" y="609" class="small">Camera attaches to vertical end tab with its existing clip rotated 90°; lens faces down.</text>
</svg>